<?xml version="1.0" encoding="UTF-8" standalone="no"?>
<!-- Created with Inkscape (http://www.inkscape.org/) -->

<svg
   xmlns:dc="http://purl.org/dc/elements/1.1/"
   xmlns:cc="http://creativecommons.org/ns#"
   xmlns:rdf="http://www.w3.org/1999/02/22-rdf-syntax-ns#"
   xmlns:svg="http://www.w3.org/2000/svg"
   xmlns="http://www.w3.org/2000/svg"
   xmlns:sodipodi="http://sodipodi.sourceforge.net/DTD/sodipodi-0.dtd"
   xmlns:inkscape="http://www.inkscape.org/namespaces/inkscape"
   width="32px"
   height="32px"
   viewBox="0 0 32 32"
   version="1.1"
   id="SVGRoot"
   inkscape:version="0.92.4 5da689c313, 2019-01-14"
   sodipodi:docname="icon.svg"
   inkscape:export-filename="/home/magodo/github/berrycast/berrycast/images/icon.png"
   inkscape:export-xdpi="96"
   inkscape:export-ydpi="96">
  <defs
     id="defs42329">
    <inkscape:path-effect
       only_selected="false"
       apply_with_weight="true"
       apply_no_weight="true"
       helper_size="0"
       steps="2"
       weight="33.333333"
       is_visible="true"
       id="path-effect63389"
       effect="bspline" />
    <inkscape:path-effect
       effect="bspline"
       id="path-effect63385"
       is_visible="true"
       weight="33.333333"
       steps="2"
       helper_size="0"
       apply_no_weight="true"
       apply_with_weight="true"
       only_selected="false" />
    <inkscape:path-effect
       effect="bspline"
       id="path-effect63381"
       is_visible="true"
       weight="33.333333"
       steps="2"
       helper_size="0"
       apply_no_weight="true"
       apply_with_weight="true"
       only_selected="false" />
  </defs>
  <sodipodi:namedview
     id="base"
     pagecolor="#ffffff"
     bordercolor="#666666"
     borderopacity="1.0"
     inkscape:pageopacity="0.0"
     inkscape:pageshadow="2"
     inkscape:zoom="16"
     inkscape:cx="5.2153714"
     inkscape:cy="11.046594"
     inkscape:document-units="px"
     inkscape:current-layer="layer1"
     showgrid="true"
     inkscape:window-width="1920"
     inkscape:window-height="1025"
     inkscape:window-x="0"
     inkscape:window-y="27"
     inkscape:window-maximized="1"
     inkscape:grid-bbox="true"
     showguides="true"
     inkscape:guide-bbox="true">
    <inkscape:grid
       type="xygrid"
       id="grid63363" />
    <sodipodi:guide
       position="73,27"
       orientation="1,0"
       id="guide63373"
       inkscape:locked="false" />
    <sodipodi:guide
       position="16,28"
       orientation="1,0"
       id="guide63527"
       inkscape:locked="false" />
  </sodipodi:namedview>
  <metadata
     id="metadata42332">
    <rdf:RDF>
      <cc:Work
         rdf:about="">
        <dc:format>image/svg+xml</dc:format>
        <dc:type
           rdf:resource="http://purl.org/dc/dcmitype/StillImage" />
        <dc:title></dc:title>
      </cc:Work>
    </rdf:RDF>
  </metadata>
  <g
     inkscape:label="Layer 1"
     inkscape:groupmode="layer"
     id="layer1">
    <rect
       style="opacity:1;fill:#fffcfc;fill-opacity:1;stroke:none;stroke-width:1.02047241;stroke-linecap:butt;stroke-linejoin:miter;stroke-miterlimit:4;stroke-dasharray:none;stroke-dashoffset:0;stroke-opacity:1;paint-order:normal"
       id="rect63367"
       width="32"
       height="32"
       x="0"
       y="0"
       rx="3.875"
       ry="3.875" />
    <path
       style="opacity:1;vector-effect:none;fill:#f08f8f;fill-opacity:1;stroke:#000000;stroke-width:1;stroke-linecap:butt;stroke-linejoin:miter;stroke-miterlimit:4;stroke-dasharray:none;stroke-dashoffset:0;stroke-opacity:1"
       d="M 28.482947 32.100953 C 29.265907 28.193651 29.436775 23.536973 27.445913 20.633179 C 25.195292 17.350508 16.110485 16.884407 16.110485 16.884407 L 16.110485 16.884407 C 16.110485 16.884407 7.0256769 17.350508 4.7750569 20.633179 C 2.7841951 23.536973 2.9550634 28.193651 3.7380223 32.100953 "
       id="path63561" />
    <path
       style="opacity:1;fill:#000000;fill-opacity:1;stroke:#000000;stroke-width:0.76822102;stroke-linecap:butt;stroke-linejoin:miter;stroke-miterlimit:4;stroke-dasharray:none;stroke-dashoffset:0;stroke-opacity:1;paint-order:normal"
       d="m 15.925103,12.544537 a 0.26279542,3.4744981 0 0 1 0.06375,2.259681 0.26279542,3.4744981 0 0 1 -0.04928,2.019005 h 0.170912 a 0.26279542,3.4744981 0 0 0 0.04702,-1.980564 0.26279542,3.4744981 0 0 0 -0.06601,-2.298122 z"
       id="rect63472"
       inkscape:connector-curvature="0" />
    <path
       style="opacity:1;vector-effect:none;fill:#278732;fill-opacity:1;stroke:#000000;stroke-width:1;stroke-linecap:butt;stroke-linejoin:miter;stroke-miterlimit:4;stroke-dasharray:none;stroke-dashoffset:0;stroke-opacity:1"
       d="m 16.110485,16.823223 c 0,0 -6.4142136,-1.353553 -9.4142141,-0.353553 -3,1 -5.01675,2.781048 -5.292893,5 l -0.292893,4.353553 6,-3 h 1 c 0,0 -1,1 -1,3 v 3 c 0,0 2.0000005,-3 4.0000001,-4 l 2,-1 c 0,0 -1,1 1,3 2,2 4,3 4,3 0,0 2,-4 1,-6 -1,-2 0,0 0,0 0,0 0,1 4,2 l 4,1 -2,-5 v 0 c 0,0 2,1 4,1 h 2 c 0,0 -3.996333,-7.475942 -8.40901,-7.707107 -5.59099,-0.292893 -7.032932,1.928078 -7.032932,1.928078"
       id="path63482"
       inkscape:connector-curvature="0"
       sodipodi:nodetypes="csscscscscscscscscscsc" />
    <path
       style="opacity:1;fill:none;fill-opacity:1;stroke:#f08f8f;stroke-width:1;stroke-linecap:butt;stroke-linejoin:miter;stroke-miterlimit:4;stroke-dasharray:none;stroke-dashoffset:0;stroke-opacity:1;paint-order:normal"
       d="M 14.859896,12.127695 A 2.3722695,2.3722695 0 0 1 13.536711,10 2.3722695,2.3722695 0 0 1 15.90898,7.6277309 2.3722695,2.3722695 0 0 1 18.28125,10 v 0 a 2.3722695,2.3722695 0 0 1 -1.16862,2.044234"
       id="path63501"
       inkscape:connector-curvature="0" />
    <path
       style="opacity:1;fill:none;fill-opacity:1;stroke:#f08f8f;stroke-width:1;stroke-linecap:butt;stroke-linejoin:miter;stroke-miterlimit:4;stroke-dasharray:none;stroke-dashoffset:0;stroke-opacity:1;paint-order:normal"
       d="m 13.019808,13.581962 a 5,5 0 0 1 -1.99484,-3.9961253 5,5 0 0 1 5,-4.9999998 5,5 0 0 1 5,4.9999998 v 0 0 a 5,5 0 0 1 -1.93236,3.9483663"
       id="path63517"
       inkscape:connector-curvature="0" />
    <path
       style="opacity:1;fill:none;fill-opacity:1;stroke:#f08f8f;stroke-width:1;stroke-linecap:butt;stroke-linejoin:miter;stroke-miterlimit:4;stroke-dasharray:none;stroke-dashoffset:0;stroke-opacity:1;paint-order:normal"
       d="M 10.220213,14.175008 A 7.5378035,7.5378035 0 0 1 8.4351163,9.3041927 7.5378035,7.5378035 0 0 1 15.972919,1.7663892 7.5378035,7.5378035 0 0 1 23.510723,9.3041927 v 0 0 A 7.5378035,7.5378035 0 0 1 21.81024,14.073278"
       id="path63525"
       inkscape:connector-curvature="0" />
    <ellipse
       style="opacity:1;fill:#ffffff;fill-opacity:1;stroke:#000000;stroke-width:1;stroke-linecap:butt;stroke-linejoin:miter;stroke-miterlimit:4;stroke-dasharray:none;stroke-dashoffset:0;stroke-opacity:1;paint-order:normal"
       id="path63613"
       cx="22"
       cy="29.5625"
       rx="0.5"
       ry="2" />
    <ellipse
       ry="1.6442692"
       rx="0.42551917"
       cy="29.8125"
       cx="11.84375"
       id="ellipse63615"
       style="opacity:1;fill:#ffffff;fill-opacity:1;stroke:#000000;stroke-width:0.83646166;stroke-linecap:butt;stroke-linejoin:miter;stroke-miterlimit:4;stroke-dasharray:none;stroke-dashoffset:0;stroke-opacity:1;paint-order:normal" />
  </g>
</svg>
